<svg xmlns="http://www.w3.org/2000/svg" width="800" height="200" viewBox="0 0 800 200"><defs><linearGradient id="bg" x1="0%" x2="100%" y1="0%" y2="100%"><stop offset="0%" style="stop-color:#0077b5;stop-opacity:1"/><stop offset="100%" style="stop-color:#005885;stop-opacity:1"/></linearGradient></defs><rect width="800" height="200" fill="url(#bg)" rx="10"/><g transform="translate(80, 50)"><rect width="80" height="100" x="0" y="0" fill="#fff" opacity=".95" rx="8"/><circle cx="20" cy="25" r="8" fill="#0077B5"/><path fill="none" stroke="#fff" stroke-linecap="round" stroke-linejoin="round" stroke-width="2" d="M16 25 L19 28 L25 21"/><rect width="35" height="8" x="35" y="20" fill="#0077B5" opacity=".3" rx="2"/><circle cx="20" cy="50" r="8" fill="#0077B5"/><path fill="none" stroke="#fff" stroke-linecap="round" stroke-linejoin="round" stroke-width="2" d="M16 50 L19 53 L25 46"/><rect width="35" height="8" x="35" y="45" fill="#0077B5" opacity=".3" rx="2"/><circle cx="20" cy="75" r="8" fill="#0077B5"/><path fill="none" stroke="#fff" stroke-linecap="round" stroke-linejoin="round" stroke-width="2" d="M16 75 L19 78 L25 71"/><rect width="35" height="8" x="35" y="70" fill="#0077B5" opacity=".3" rx="2"/></g><g><path fill="none" stroke="#fff" stroke-linecap="round" stroke-linejoin="round" stroke-width="4" d="M0 15 L40 15 M30 5 L42 15 L30 25" opacity=".8" transform="translate(185, 85)"/></g><g transform="translate(240, 60)"><rect width="70" height="80" x="0" y="0" fill="#fff" opacity=".95" rx="8"/><path fill="none" stroke="#0077B5" stroke-linecap="round" stroke-linejoin="round" stroke-width="3" d="M15 10 L55 10 L55 70 L15 70 Z M20 10 L20 30 L50 30 L50 10 M35 45 L35 60 M28 52 L35 60 L42 52"/></g><text x="340" y="95" fill="#fff" font-family="Arial, sans-serif" font-size="42" font-weight="bold">SalesNav Lead Saver</text><text x="340" y="130" fill="#fff" font-family="Arial, sans-serif" font-size="18" opacity=".9">Automate saving LinkedIn Sales Navigator leads to lists</text><g transform="translate(340, 145)"><rect width="95" height="24" x="0" y="0" fill="#fff" opacity=".2" rx="12"/><text x="47" y="16" fill="#fff" font-family="Arial, sans-serif" font-size="11" text-anchor="middle">Chrome Extension</text></g><g transform="translate(445, 145)"><rect width="70" height="24" x="0" y="0" fill="#fff" opacity=".2" rx="12"/><text x="35" y="16" fill="#fff" font-family="Arial, sans-serif" font-size="11" text-anchor="middle">Manifest V3</text></g></svg>